<?xml version="1.0" encoding="UTF-8" standalone="no"?>
<svg
   xmlns:dc="http://purl.org/dc/elements/1.1/"
   xmlns:cc="http://creativecommons.org/ns#"
   xmlns:rdf="http://www.w3.org/1999/02/22-rdf-syntax-ns#"
   xmlns:svg="http://www.w3.org/2000/svg"
   xmlns="http://www.w3.org/2000/svg"
   xmlns:sodipodi="http://sodipodi.sourceforge.net/DTD/sodipodi-0.dtd"
   xmlns:inkscape="http://www.inkscape.org/namespaces/inkscape"
   width="99"
   height="99"
   viewBox="0 0 99 99"
   version="1.1"
   id="svg4545"
   sodipodi:docname="icinga-cloud-white.svg"
   enable-background="new"
   inkscape:version="0.92.1 r15371"
   inkscape:export-filename="/home/littlefox/tmp/icinga-cloud/512.png"
   inkscape:export-xdpi="496.48486"
   inkscape:export-ydpi="496.48486">
  <defs
     id="defs4549" />
  <sodipodi:namedview
     pagecolor="#ffffff"
     bordercolor="#666666"
     borderopacity="1"
     objecttolerance="10"
     gridtolerance="10"
     guidetolerance="10"
     inkscape:pageopacity="0"
     inkscape:pageshadow="2"
     inkscape:window-width="1916"
     inkscape:window-height="1036"
     id="namedview4547"
     showgrid="false"
     inkscape:zoom="8.4195804"
     inkscape:cx="32.029625"
     inkscape:cy="59.885165"
     inkscape:window-x="0"
     inkscape:window-y="20"
     inkscape:window-maximized="0"
     inkscape:current-layer="svg4545" />
  <g
     style="display:inline">
    <g
       style="display:inline;fill:#34aadc;fill-opacity:1">
      <path
         style="fill:#ffffff;fill-opacity:1;fill-rule:nonzero;stroke-width:1.47864103"
         d="m 67.9375,11.134766 c -3.795279,-0.02697 -7.607342,1.15607 -10.458984,3.560546 -8.451677,-3.46121 -18.786033,-2.714026 -26.451172,2.207032 -6.051172,-2.888753 -14.312284,-1.795551 -18.65625,3.53125 -3.937025,4.309352 -2.7265451,10.328594 0.878906,14.18164 -1.555485,1.038852 -2.979301,2.275655 -4.21875,3.710938 -7.2812992,7.726398 -3.3473952,19.006576 4.529297,24.34375 -6.3426789,8.625372 2.195503,20.720061 12.169922,21.791016 4.062882,1.066288 8.836852,0.949394 13.208984,-0.296876 1.814088,1.380129 3.905342,2.406238 6.210938,2.914063 10.188959,3.366959 22.726023,-3.459846 24.419921,-14.087891 7.124806,-1.498467 13.448366,-5.323545 14.673829,-12.808593 0.0016,-1.027051 -0.188423,-2.00653 -0.525391,-2.929688 5.968231,-2.294727 10.502448,-8.707463 10.123047,-15.314453 8.27e-4,-2.518963 -0.539765,-5.041921 -1.601563,-7.328125 -1.775636,-4.610204 -6.0193,-7.606858 -10.625,-8.480469 0.368809,-1.021144 0.590488,-2.123692 0.623047,-3.30664 5.36e-4,-1.061074 -0.180819,-2.121353 -0.52539,-3.125 -2.173645,-5.641947 -7.95054,-8.521115 -13.775391,-8.5625 z m -14.056641,9.648437 c 1.634867,-0.146601 3.310333,0.493761 4.425782,1.861328 1.782172,2.187472 1.455686,5.408006 -0.732422,7.19336 -1.385781,1.126821 -3.183964,1.408305 -4.769531,0.908203 l -4.789063,9.949218 c 1.157362,0.599996 2.21698,1.436435 3.09375,2.511719 1.084192,1.331062 1.759876,2.864791 2.044922,4.44336 L 69.470703,43.625 c -0.101166,-0.305406 -0.171815,-0.624991 -0.197265,-0.960938 -0.165429,-2.211013 1.493472,-4.141256 3.707031,-4.308593 2.211013,-0.164792 4.137986,1.494109 4.304687,3.707031 0.166701,2.21165 -1.492156,4.140532 -3.705078,4.304688 -1.607836,0.120889 -3.062761,-0.725949 -3.802734,-2.044922 l -16.519532,4.074218 c 0.32704,3.178134 -0.896425,6.456661 -3.55664,8.626954 -0.248143,0.201695 -0.50344,0.386847 -0.763672,0.560546 l 3.460938,5.783204 c 0.235417,-0.05981 0.48382,-0.08459 0.740234,-0.05469 1.130639,0.130434 1.938391,1.151203 1.808594,2.279297 -0.132343,1.130639 -1.15252,1.939072 -2.28125,1.810547 -1.13064,-0.13107 -1.940301,-1.1532 -1.808594,-2.283203 0.06935,-0.603178 0.397404,-1.107828 0.857422,-1.433594 L 48.292969,57.96875 c -2.924901,1.639649 -6.448665,1.653155 -9.339844,0.146484 L 32.875,66.830078 c 1.147818,1.091827 1.91508,2.59101 2.042969,4.294922 0.273593,3.643878 -2.457049,6.820157 -6.101563,7.09375 -3.64515,0.274229 -6.822746,-2.457093 -7.095703,-6.103516 -0.274865,-3.642605 2.459683,-6.818203 6.105469,-7.091796 1.668917,-0.126617 3.236442,0.384325 4.474609,1.318359 l 6.001953,-8.605469 c -0.893313,-0.557366 -1.714898,-1.261591 -2.417968,-2.125 -3.007615,-3.682689 -2.890869,-8.888796 0.01367,-12.425781 l -5.189454,-4.25 c -0.237962,0.258323 -0.523383,0.484282 -0.857422,0.648437 -1.455769,0.711979 -3.211213,0.106841 -3.923828,-1.347656 -0.711342,-1.453224 -0.10684,-3.207988 1.347657,-3.921875 1.45386,-0.712614 3.210533,-0.110747 3.921875,1.34375 0.428205,0.878043 0.373561,1.863052 -0.05273,2.666016 l 5.257813,4.304687 c 0.27741,-0.290136 0.567315,-0.571799 0.886718,-0.832031 2.921083,-2.380259 6.803252,-2.796795 10.048829,-1.419922 l 4.767578,-9.910156 c -0.647716,-0.315587 -1.240414,-0.767739 -1.72461,-1.363281 -1.78599,-2.188745 -1.455686,-5.409915 0.732422,-7.19336 0.820302,-0.668314 1.786659,-1.038992 2.767578,-1.126953 z"
         inkscape:connector-curvature="0" />
    </g>
  </g>
  <metadata
     id="metadata4548">
    <rdf:RDF>
      <cc:Work
         rdf:about="">
        <dc:title></dc:title>
      </cc:Work>
    </rdf:RDF>
  </metadata>
</svg>
