<?xml version="1.0" encoding="UTF-8" standalone="no"?>
<svg
   xmlns:dc="http://purl.org/dc/elements/1.1/"
   xmlns:cc="http://creativecommons.org/ns#"
   xmlns:rdf="http://www.w3.org/1999/02/22-rdf-syntax-ns#"
   xmlns:svg="http://www.w3.org/2000/svg"
   xmlns="http://www.w3.org/2000/svg"
   enable-background="new"
   id="svg4545"
   version="1.1"
   viewBox="0 0 99 99"
   height="99"
   width="99">
  <metadata
     id="metadata4551">
    <rdf:RDF>
      <cc:Work
         rdf:about="">
        <dc:format>image/svg+xml</dc:format>
        <dc:type
           rdf:resource="http://purl.org/dc/dcmitype/StillImage" />
        <dc:title>icinga-logo-big</dc:title>
      </cc:Work>
    </rdf:RDF>
  </metadata>
  <defs
     id="defs4549">
    <clipPath
       id="clipPath5269"
       clipPathUnits="userSpaceOnUse">
      <g
         transform="matrix(0.63626289,0,0,0.63626289,18.004987,18.004987)"
         style="fill:#000000;fill-opacity:1"
         id="g5273">
        <path
           d="m 86.402396,31.984486 c -3.479,0.263 -6.084,3.296 -5.824,6.771 0.04,0.528 0.15,1.032 0.309,1.512 l -25.644,6.324 c -0.448,-2.481 -1.51,-4.889 -3.214,-6.981 -1.378,-1.69 -3.042,-3.006 -4.861,-3.949 l 7.524,-15.638 c 2.492,0.786 5.32,0.345 7.498,-1.426 3.439,-2.806 3.953,-7.868 1.152,-11.3060002 -2.805,-3.439 -7.869,-3.955 -11.307,-1.154 -3.439,2.803 -3.958,7.8660002 -1.151,11.3060002 0.761,0.936 1.694,1.645 2.712,2.141 l -7.496,15.578 c -5.101,-2.164 -11.2,-1.509 -15.791,2.232 -0.502,0.409 -0.959,0.851 -1.395,1.307 l -8.264,-6.765 c 0.67,-1.262 0.757,-2.81 0.084,-4.19 -1.118,-2.286 -3.88,-3.234 -6.165,-2.114 -2.286,1.122 -3.234,3.881 -2.116,6.165 1.12,2.286 3.879,3.236 6.167,2.117 0.525,-0.258 0.971,-0.611 1.345,-1.017 l 8.158,6.678 c -4.565,5.559 -4.749,13.743 -0.022,19.531 1.105,1.357 2.397,2.461 3.801,3.337 l -9.434,13.526 c -1.946,-1.468 -4.411,-2.271 -7.034,-2.072 -5.7299997,0.43 -10.0249997,5.422 -9.5929997,11.147 0.429,5.731 5.4219997,10.024 11.1509997,9.593 5.728,-0.43 10.02,-5.424 9.59,-11.151 -0.201,-2.678 -1.407,-5.033 -3.211,-6.749 l 9.553,-13.698 c 4.544,2.368 10.082,2.348 14.679,-0.229 l 5.378,8.984 c -0.723,0.512 -1.238,1.307 -1.347,2.255 -0.207,1.776 1.065,3.382 2.842,3.588 1.774,0.202 3.378,-1.068 3.586,-2.845 0.204,-1.773 -1.066,-3.379 -2.843,-3.584 -0.403,-0.047 -0.794,-0.008 -1.164,0.086 l -5.44,-9.088 c 0.409,-0.273 0.811,-0.564 1.201,-0.881 4.181,-3.411 6.104,-8.564 5.59,-13.559 l 25.964,-6.403 c 1.163,2.073 3.45,3.404 5.977,3.214 3.478,-0.258 6.085,-3.291 5.823,-6.767 -0.262,-3.478 -3.293,-6.085 -6.768,-5.826 M -26.686158,-27.519001 H 126.14564 V 126.05952 H -26.686158 Z"
           style="fill:#000000;fill-opacity:1"
           id="path5271" />
      </g>
    </clipPath>
  </defs>
  <title
     id="title4538">icinga-logo-big</title>
  <g
     style="display:inline;"
     id="layer5">
    <g
       clip-path="url(#clipPath5269)"
       id="g4624"
       style="display:inline">
      <ellipse
         style="fill:#ffffff;fill-opacity:1;fill-rule:nonzero;stroke-width:1.33335042"
         id="path4555"
         cx="27.329178"
         cy="48.429878"
         rx="22.170826"
         ry="17.895023" />
      <ellipse
         style="fill:#ffffff;fill-opacity:1;fill-rule:nonzero;stroke-width:1.33335042"
         id="path4557"
         cx="31.768036"
         cy="69.784981"
         rx="20.428831"
         ry="15.361216" />
      <ellipse
         style="fill:#ffffff;fill-opacity:1;fill-rule:nonzero;stroke-width:1.33335042"
         id="path4559"
         cx="54.725979"
         cy="50.963684"
         rx="20.74556"
         ry="18.21175" />
      <ellipse
         style="fill:#ffffff;fill-opacity:1;fill-rule:nonzero;stroke-width:1.33335042"
         id="path4561"
         cx="61.756283"
         cy="60.182465"
         rx="22.487551"
         ry="13.619222" />
      <ellipse
         style="fill:#ffffff;fill-opacity:1;fill-rule:nonzero;stroke-width:1.33335042"
         id="path4563"
         cx="50.766907"
         cy="70.283974"
         rx="19.003565"
         ry="17.578297" />
      <ellipse
         style="fill:#ffffff;fill-opacity:1;fill-rule:nonzero;stroke-width:1.33335042"
         id="path4567"
         cx="79.113884"
         cy="41.936996"
         rx="14.727763"
         ry="16.15303" />
      <ellipse
         style="fill:#ffffff;fill-opacity:1;fill-rule:nonzero;stroke-width:1.40227938"
         id="path4575"
         cx="46.375843"
         cy="30.122087"
         rx="23.596094"
         ry="17.515976" />
      <ellipse
         style="fill:#ffffff;fill-opacity:1;fill-rule:nonzero;stroke-width:1.33335042"
         id="path4577"
         cx="24.003555"
         cy="27.050867"
         rx="14.09431"
         ry="11.718865" />
      <ellipse
         style="fill:#ffffff;fill-opacity:1;fill-rule:nonzero;stroke-width:1.47864103"
         id="path4581"
         cx="67.827003"
         cy="22.823084"
         rx="14.411037"
         ry="11.685356" />
    </g>
  </g>
  <g
     style="display:inline;opacity:1;"
     id="layer3" />
</svg>
